HIERARCHY
ROOT hip
{
  OFFSET 0 0 0
  CHANNELS 6 Xposition Yposition Zposition Zrotation Yrotation Xrotation
  JOINT abdomen
  {
    OFFSET 0 20.6881 -0.73152
    CHANNELS 3 Zrotation Xrotation Yrotation
    JOINT chest
    {
      OFFSET 0 11.7043 -0.48768
      CHANNELS 3 Zrotation Xrotation Yrotation
      JOINT neck
      {
        OFFSET 0 22.1894 -2.19456
        CHANNELS 3 Zrotation Xrotation Yrotation
        JOINT head
        {
          OFFSET -0.24384 7.07133 1.2192
          CHANNELS 3 Zrotation Xrotation Yrotation
          JOINT leftEye
          {
            OFFSET 4.14528 8.04674 8.04672
            CHANNELS 3 Zrotation Xrotation Yrotation
            End Site
            {
              OFFSET 1 0 0
            }
          }
          JOINT rightEye
          {
            OFFSET -3.6576 8.04674 8.04672
            CHANNELS 3 Zrotation Xrotation Yrotation
            End Site
            {
              OFFSET 1 0 0
            }
          }
        }
      }
      JOINT rCollar
      {
        OFFSET -2.68224 19.2634 -4.8768
        CHANNELS 3 Zrotation Xrotation Yrotation
        JOINT rShldr
        {
          OFFSET -8.77824 -1.95073 1.46304
          CHANNELS 3 Zrotation Xrotation Yrotation
          JOINT rForeArm
          {
            OFFSET -28.1742 -1.7115 0.48768
            CHANNELS 3 Zrotation Xrotation Yrotation
            JOINT rHand
            {
              OFFSET -22.5879 0.773209 7.07136
              CHANNELS 3 Zrotation Xrotation Yrotation
              JOINT rThumb1
              {
                OFFSET -1.2192 -0.487915 3.41376
                CHANNELS 3 Zrotation Xrotation Yrotation
                JOINT rThumb2
                {
                  OFFSET -3.37035 -0.52449 3.41376
                  CHANNELS 3 Zrotation Xrotation Yrotation
                  End Site
                  {
                    OFFSET -1.78271 -1.18214 1.43049
                  }
                }
              }
              JOINT rIndex1
              {
                OFFSET -7.75947 0.938293 5.60832
                CHANNELS 3 Zrotation Xrotation Yrotation
                JOINT rIndex2
                {
                  OFFSET -2.54057 -0.884171 1.56538
                  CHANNELS 3 Zrotation Xrotation Yrotation
                  End Site
                  {
                    OFFSET -1.62519 -0.234802 1.16502
                  }
                }
              }
              JOINT rMid1
              {
                OFFSET -8.24714 1.18213 3.41376
                CHANNELS 3 Zrotation Xrotation Yrotation
                JOINT rMid2
                {
                  OFFSET -3.10165 -0.590103 1.0647
                  CHANNELS 3 Zrotation Xrotation Yrotation
                  End Site
                  {
                    OFFSET -2.48547 -0.328903 0.83742
                  }
                }
              }
              JOINT rRing1
              {
                OFFSET -8.82822 0.546677 1.51678
                CHANNELS 3 Zrotation Xrotation Yrotation
                JOINT rRing2
                {
                  OFFSET -2.60934 -0.819778 -0.0198488
                  CHANNELS 3 Zrotation Xrotation Yrotation
                  End Site
                  {
                    OFFSET -2.33842 -0.294052 0.168128
                  }
                }
              }
              JOINT rPinky1
              {
                OFFSET -8.27202 -0.0477905 -0.4584
                CHANNELS 3 Zrotation Xrotation Yrotation
                JOINT rPinky2
                {
                  OFFSET -1.82734 -0.647385 -0.700984
                  CHANNELS 3 Zrotation Xrotation Yrotation
                  End Site
                  {
                    OFFSET -1.69225 -0.51767 -0.607171
                  }
                }
              }
            }
          }
        }
      }
      JOINT lCollar
      {
        OFFSET 2.68224 19.2634 -4.8768
        CHANNELS 3 Zrotation Xrotation Yrotation
        JOINT lShldr
        {
          OFFSET 8.77824 -1.95073 1.46304
          CHANNELS 3 Zrotation Xrotation Yrotation
          JOINT lForeArm
          {
            OFFSET 28.1742 -1.7115 0.48768
            CHANNELS 3 Zrotation Xrotation Yrotation
            JOINT lHand
            {
              OFFSET 22.5879 0.773209 7.07136
              CHANNELS 3 Zrotation Xrotation Yrotation
              JOINT lThumb1
              {
                OFFSET 1.2192 -0.487915 3.41376
                CHANNELS 3 Zrotation Xrotation Yrotation
                JOINT lThumb2
                {
                  OFFSET 3.37035 -0.52449 3.41376
                  CHANNELS 3 Zrotation Xrotation Yrotation
                  End Site
                  {
                    OFFSET 1.78271 -1.18214 1.43049
                  }
                }
              }
              JOINT lIndex1
              {
                OFFSET 7.75947 0.938293 5.60832
                CHANNELS 3 Zrotation Xrotation Yrotation
                JOINT lIndex2
                {
                  OFFSET 2.54057 -0.884171 1.56538
                  CHANNELS 3 Zrotation Xrotation Yrotation
                  End Site
                  {
                    OFFSET 1.62519 -0.234802 1.16502
                  }
                }
              }
              JOINT lMid1
              {
                OFFSET 8.24714 1.18213 3.41376
                CHANNELS 3 Zrotation Xrotation Yrotation
                JOINT lMid2
                {
                  OFFSET 3.10165 -0.590103 1.0647
                  CHANNELS 3 Zrotation Xrotation Yrotation
                  End Site
                  {
                    OFFSET 2.48547 -0.328903 0.83742
                  }
                }
              }
              JOINT lRing1
              {
                OFFSET 8.82822 0.546677 1.51678
                CHANNELS 3 Zrotation Xrotation Yrotation
                JOINT lRing2
                {
                  OFFSET 2.60934 -0.819778 -0.0198488
                  CHANNELS 3 Zrotation Xrotation Yrotation
                  End Site
                  {
                    OFFSET 2.33842 -0.294052 0.168128
                  }
                }
              }
              JOINT lPinky1
              {
                OFFSET 8.27202 -0.0477905 -0.4584
                CHANNELS 3 Zrotation Xrotation Yrotation
                JOINT lPinky2
                {
                  OFFSET 1.82734 -0.647385 -0.700984
                  CHANNELS 3 Zrotation Xrotation Yrotation
                  End Site
                  {
                    OFFSET 1.69225 -0.51767 -0.607171
                  }
                }
              }
            }
          }
        }
      }
    }
  }
  JOINT rButtock
  {
    OFFSET -8.77824 4.35084 1.2192
    CHANNELS 3 Zrotation Xrotation Yrotation
    JOINT rThigh
    {
      OFFSET 0 -1.70687 -2.19456
      CHANNELS 3 Zrotation Xrotation Yrotation
      JOINT rShin
      {
        OFFSET 0 -36.8199 0.73152
        CHANNELS 3 Zrotation Xrotation Yrotation
        JOINT rFoot
        {
          OFFSET 0.73152 -45.1104 -5.12064
          CHANNELS 3 Zrotation Xrotation Yrotation
          End Site
          {
            OFFSET -1.1221 -3.69964 12.103
          }
        }
      }
    }
  }
  JOINT lButtock
  {
    OFFSET 8.77824 4.35084 1.2192
    CHANNELS 3 Zrotation Xrotation Yrotation
    JOINT lThigh
    {
      OFFSET 0 -1.70687 -2.19456
      CHANNELS 3 Zrotation Xrotation Yrotation
      JOINT lShin
      {
        OFFSET 0 -36.8199 0.73152
        CHANNELS 3 Zrotation Xrotation Yrotation
        JOINT lFoot
        {
          OFFSET -0.73152 -45.1104 -5.12064
          CHANNELS 3 Zrotation Xrotation Yrotation
          End Site
          {
            OFFSET 1.1221 -3.69964 12.103
          }
        }
      }
    }
  }
}
MOTION
Frames:	8
Frame Time:	0.00833333
1.205 85.6228 -1.42472 0.0 0.0 0.0 2.93083 0.00146924 0.0791274 0.807956 0.0160283 0.139789 3.54952e-14 0.0 4.96962e-16 1.05654e-13 3.18055e-15 1.98785e-15 -0.0 0.0 0.0 -0.0 0.0 0.0 1.79887e-14 -9.41509e-17 4.96962e-16 3.76609e-13 -1.57164e-15 9.74045e-15 6.44708e-12 -1.98367e-12 7.63333e-14 7.36847e-11 1.62847e-12 1.55847e-12 1.73827e-10 -7.74412e-13 3.53678e-12 3.00193e-10 -1.33265e-12 6.08917e-12 1.73834e-10 -7.71285e-13 3.52724e-12 7.73091 5.47488 0.417314 1.73829e-10 -7.74167e-13 3.53678e-12 2.90554 0.965183 0.102902 1.73843e-10 -7.73571e-13 3.53121e-12 10.2786 0.731801 0.0259123 1.73828e-10 -7.77248e-13 3.53678e-12 2.22167 -0.733487 -0.20892 1.79925e-14 -9.20156e-17 2.98177e-16 3.70645e-13 -1.67103e-15 7.35503e-15 6.42457e-12 1.87712e-12 1.01778e-13 7.36893e-11 -2.23797e-12 1.52985e-12 1.73796e-10 -7.84548e-13 3.51451e-12 3.0014e-10 -1.3581e-12 6.07486e-12 1.73791e-10 -7.83212e-13 3.52724e-12 -7.73091 5.47488 -0.417314 1.73794e-10 -7.84007e-13 3.51769e-12 -2.90554 0.965183 -0.102902 1.73788e-10 -7.84404e-13 3.51769e-12 -10.2786 0.731801 -0.0259123 1.73798e-10 -7.82814e-13 3.51451e-12 -2.22167 -0.733487 0.20892 -2.03217e-16 0.0 -3.88251e-19 2.69396 -8.99523 -0.29878 0.00819484 10.7114 0.212028 -0.527181 -1.72853 0.0239001 2.03217e-16 0.0 3.88251e-19 1.75979 -1.93355 -0.0120188 0.00859364 -2.07865 0.0705835 0.465436 3.99976 -0.133453
-2.27398 84.4663 -5.4112 175.814 -85.9156 -171.976 2.14387 -1.59091 -0.206397 1.5284 -0.989519 0.0951553 -0.0191506 7.38225 -0.367211 -1.38952 -10.2736 -1.22899 -0.0 0.0 0.0 -0.0 0.0 0.0 1.88127e-14 -2.57535e-13 2.36297e-14 22.4404 6.71373 -2.97381 -4.21779 -1.91598 6.58835 0.010953 2.32182 0.325342 -2.1475e-12 -1.19568e-10 -2.33899e-11 -4.33727e-12 -2.07436e-10 -3.93114e-11 -2.14109e-12 -1.19566e-10 -2.33977e-11 7.73091 5.47488 0.417314 -2.14555e-12 -1.19568e-10 -2.3389e-11 2.90554 0.965183 0.102902 -2.13514e-12 -1.19568e-10 -2.33933e-11 10.2786 0.731801 0.0259123 -2.14821e-12 -1.1957e-10 -2.33863e-11 2.22167 -0.733487 -0.20892 1.88256e-14 -2.57534e-13 2.34127e-14 -23.8528 1.72302 3.75128 4.75608 -2.27968 -7.29531 -0.0537864 5.14847 -0.713061 -1.27384e-10 2.20805e-10 6.73021e-11 -2.18949e-10 3.84091e-10 1.20757e-10 -1.27387e-10 2.20806e-10 6.7313e-11 -7.73091 5.47488 -0.417314 -1.27384e-10 2.20806e-10 6.73053e-11 -2.90554 0.965183 -0.102902 -1.27391e-10 2.20805e-10 6.73041e-11 -10.2786 0.731801 -0.0259123 -1.27381e-10 2.20807e-10 6.73014e-11 -2.22167 -0.733487 0.20892 -2.03217e-16 0.0 -3.88251e-19 3.3357 -11.2773 4.21144 0.00783242 16.1287 0.272301 -1.0083 -6.00807 -3.15054 2.03217e-16 0.0 3.88251e-19 2.14741 -4.64101 -4.44011 0.0014692 5.4236 -0.0685159 1.04496 1.3516 5.72912
-2.27992 84.4672 -5.4125 175.899 -85.93 -172.09 1.2933 -3.27262 -0.511056 2.28878 -2.05509 0.0474409 0.068809 15.1915 -0.777742 -3.37223 -21.1258 -2.67091 -0.0 0.0 0.0 -0.0 0.0 0.0 1.99737e-14 -5.37318e-13 4.83357e-14 46.9424 13.7536 -6.26382 -8.20597 -3.86058 13.5846 -0.00622984 4.77615 0.67107 -2.00013e-10 -2.48535e-10 -4.41028e-11 -3.46681e-10 -4.31214e-10 -7.37997e-11 -2.00007e-10 -2.48534e-10 -4.41089e-11 7.73091 5.47488 0.417314 -2.00011e-10 -2.48537e-10 -4.4101e-11 2.90554 0.965183 0.102902 -2.00005e-10 -2.48536e-10 -4.41041e-11 10.2786 0.731801 0.0259123 -2.00016e-10 -2.48537e-10 -4.40954e-11 2.22167 -0.733487 -0.20892 1.99957e-14 -5.37317e-13 4.80966e-14 -49.3146 3.5206 7.73387 9.1605 -4.56825 -15.0479 0.0308521 10.5832 -1.48553 -4.5205e-10 4.5677e-10 1.23908e-10 -7.78711e-10 7.94644e-10 2.2339e-10 -4.52051e-10 4.5677e-10 1.23917e-10 -7.73091 5.47488 -0.417314 -4.5205e-10 4.56771e-10 1.23912e-10 -2.90554 0.965183 -0.102902 -4.52057e-10 4.5677e-10 1.23909e-10 -10.2786 0.731801 -0.0259123 -4.52046e-10 4.56772e-10 1.23907e-10 -2.22167 -0.733487 0.20892 -2.03217e-16 0.0 -3.88251e-19 4.41274 -13.5859 9.06231 -0.00612643 21.8577 0.342539 -2.03899 -10.4851 -6.57747 2.03217e-16 0.0 3.88251e-19 2.10008 -7.43412 -9.16969 0.0343264 13.3521 -0.220885 2.24322 -1.40617 11.9266
-2.28567 84.4682 -5.40598 175.486 -85.9427 -171.697 0.522199 -4.77526 -0.779915 2.96459 -3.00062 0.00585384 0.245631 22.143 -1.17951 -5.67344 -30.7592 -4.22276 -0.0 0.0 0.0 -0.0 0.0 0.0 2.04607e-14 -7.72418e-13 6.98953e-14 69.5151 19.9172 -9.42886 -11.3556 -5.44457 19.8472 -0.0467412 6.96455 0.982476 -3.54096e-10 -3.57154e-10 -7.72431e-11 -6.13398e-10 -6.19644e-10 -1.30112e-10 -3.54091e-10 -3.57155e-10 -7.72476e-11 7.73091 5.47488 0.417314 -3.54094e-10 -3.57157e-10 -7.72405e-11 2.90554 0.965183 0.102902 -3.54091e-10 -3.57157e-10 -7.72424e-11 10.2786 0.731801 0.0259123 -3.541e-10 -3.57156e-10 -7.72324e-11 2.22167 -0.733487 -0.20892 2.04919e-14 -7.72417e-13 6.96418e-14 -72.2326 5.08036 11.2937 12.5646 -6.3965 -22.0126 0.235228 15.4357 -2.21032 -7.29743e-10 6.63985e-10 1.94877e-10 -1.25713e-09 1.15499e-09 3.50122e-10 -7.29742e-10 6.63984e-10 1.94884e-10 -7.73091 5.47488 -0.417314 -7.29742e-10 6.63986e-10 1.9488e-10 -2.90554 0.965183 -0.102902 -7.29749e-10 6.63985e-10 1.94877e-10 -10.2786 0.731801 -0.0259123 -7.29738e-10 6.63987e-10 1.94875e-10 -2.22167 -0.733487 0.20892 -2.03217e-16 0.0 -3.88251e-19 5.71905 -15.5129 13.48 -0.032026 26.963 0.412973 -3.42605 -14.392 -9.75646 2.03217e-16 0.0 3.88251e-19 1.66397 -9.82604 -13.4535 0.10167 20.4277 -0.368901 3.80781 -3.74355 17.4873
-2.28713 84.468 -5.40271 175.329 -85.9612 -171.543 -0.0159923 -5.83063 -0.956844 3.43242 -3.64602 -0.0203448 0.421748 26.9538 -1.4846 -7.64475 -37.4047 -5.54333 -0.0 0.0 0.0 -0.0 0.0 0.0 1.92626e-14 -8.9581e-13 8.3589e-14 85.6675 24.1059 -11.7947 -13.3204 -6.41895 24.1965 -0.089206 8.48895 1.20194 -3.98722e-10 -4.14903e-10 -1.41452e-10 -6.91046e-10 -7.19702e-10 -2.40987e-10 -3.98717e-10 -4.14905e-10 -1.41455e-10 7.73091 5.47488 0.417314 -3.9872e-10 -4.14907e-10 -1.41449e-10 2.90554 0.965183 0.102902 -3.98719e-10 -4.14907e-10 -1.4145e-10 10.2786 0.731801 0.0259123 -3.98727e-10 -4.14905e-10 -1.41439e-10 2.22167 -0.733487 -0.20892 1.93029e-14 -8.9581e-13 8.33405e-14 -88.3143 6.13071 13.7585 14.6575 -7.49741 -26.8865 0.45617 18.8414 -2.74882 -8.9e-10 7.99324e-10 3.01752e-10 -1.53217e-09 1.38981e-09 5.37107e-10 -8.89999e-10 7.99323e-10 3.01758e-10 -7.73091 5.47488 -0.417314 -8.89999e-10 7.99325e-10 3.01755e-10 -2.90554 0.965183 -0.102902 -8.90006e-10 7.99324e-10 3.01751e-10 -10.2786 0.731801 -0.0259123 -8.89996e-10 7.99327e-10 3.01749e-10 -2.22167 -0.733487 0.20892 -2.03217e-16 0.0 -3.88251e-19 6.82257 -16.7599 16.6208 -0.0585992 30.5093 0.467583 -4.6668 -17.0359 -12.081 2.03217e-16 0.0 3.88251e-19 1.1423 -11.4252 -16.4842 0.172789 25.3714 -0.483313 5.16093 -5.25428 21.3949
-2.28501 84.4674 -5.40927 175.818 -85.9848 -172.023 -0.208663 -6.26859 -1.00058 3.61058 -3.85915 -0.0244413 0.471412 28.7693 -1.594 -8.44426 -39.9255 -6.07868 -0.0 0.0 0.0 -0.0 0.0 0.0 1.47354e-14 -8.59936e-13 8.91355e-14 92.0293 25.6898 -12.6614 -13.9968 -6.73283 25.8023 -0.109162 9.09008 1.28918 -2.51733e-10 -3.84951e-10 -3.12397e-10 -4.38102e-10 -6.67413e-10 -5.37956e-10 -2.51727e-10 -3.84953e-10 -3.12399e-10 7.73091 5.47488 0.417314 -2.5173e-10 -3.84954e-10 -3.12394e-10 2.90554 0.965183 0.102902 -2.51729e-10 -3.84954e-10 -3.12394e-10 10.2786 0.731801 0.0259123 -2.51737e-10 -3.84951e-10 -3.12385e-10 2.22167 -0.733487 -0.20892 1.47866e-14 -8.59936e-13 8.89262e-14 -94.6178 6.52161 14.6562 15.4007 -7.86761 -28.7597 0.565175 20.2397 -2.97861 -9.01765e-10 8.4735e-10 5.12031e-10 -1.54921e-09 1.47181e-09 9.0057e-10 -9.01764e-10 8.47348e-10 5.12037e-10 -7.73091 5.47488 -0.417314 -9.01763e-10 8.4735e-10 5.12034e-10 -2.90554 0.965183 -0.102902 -9.01771e-10 8.4735e-10 5.1203e-10 -10.2786 0.731801 -0.0259123 -9.0176e-10 8.47352e-10 5.12025e-10 -2.22167 -0.733487 0.20892 -2.03217e-16 0.0 -3.88251e-19 7.30636 -17.2169 17.8785 -0.0706448 31.8679 0.489691 -5.22273 -18.0229 -13.0532 2.03217e-16 0.0 3.88251e-19 0.891439 -12.0585 -17.6713 0.20691 27.3369 -0.53104 5.7305 -5.76878 22.9367
-2.28016 84.4658 -5.41488 176.227 -86.0025 -172.408 -0.151421 -6.26521 -0.948832 3.5821 -3.7641 -0.0127567 0.401827 28.4461 -1.54575 -8.20516 -39.5163 -5.89828 -0.0 0.0 0.0 -0.0 0.0 0.0 7.87648e-15 -7.10436e-13 8.87263e-14 91.2037 25.46 -12.3519 -13.8327 -6.6298 25.4385 -0.107057 9.03165 1.28067 3.02977e-11 -2.93139e-10 -5.56572e-10 4.78406e-11 -5.07666e-10 -9.62627e-10 3.0303e-11 -2.93141e-10 -5.56572e-10 7.73091 5.47488 0.417314 3.03e-11 -2.93141e-10 -5.56569e-10 2.90554 0.965183 0.102902 3.03022e-11 -2.93142e-10 -5.56567e-10 10.2786 0.731801 0.0259123 3.0294e-11 -2.93138e-10 -5.56561e-10 2.22167 -0.733487 -0.20892 7.93984e-15 -7.10436e-13 8.85803e-14 -93.8903 6.45821 14.4282 15.2833 -7.79708 -28.4739 0.559508 20.2055 -2.97227 -8.06705e-10 8.32374e-10 7.93639e-10 -1.38068e-09 1.44357e-09 1.3857e-09 -8.06706e-10 8.32371e-10 7.93647e-10 -7.73091 5.47488 -0.417314 -8.06703e-10 8.32373e-10 7.93642e-10 -2.90554 0.965183 -0.102902 -8.06712e-10 8.32374e-10 7.93639e-10 -10.2786 0.731801 -0.0259123 -8.067e-10 8.32375e-10 7.9363e-10 -2.22167 -0.733487 0.20892 -2.03217e-16 0.0 -3.88251e-19 7.27057 -17.1547 17.7674 -0.0682753 31.664 0.4857 -5.1738 -17.8605 -13.0147 2.03217e-16 0.0 3.88251e-19 0.924234 -12.0425 -17.5192 0.2033 27.175 -0.524737 5.63426 -5.62506 22.7727
-2.27663 84.4647 -5.41406 176.24 -86.0249 -172.406 -0.00131018 -6.07175 -0.863334 3.47085 -3.56512 0.0044545 0.301973 27.2694 -1.43812 -7.59873 -37.9205 -5.45362 -0.0 0.0 0.0 -0.0 0.0 0.0 1.63696e-15 -5.2009e-13 8.13503e-14 87.5313 24.5036 -11.6073 -13.3415 -6.3675 24.3166 -0.0959 8.70023 1.23254 3.04943e-10 -2.02959e-10 -7.28853e-10 5.21549e-10 -3.50744e-10 -1.26284e-09 3.04948e-10 -2.0296e-10 -7.28853e-10 7.73091 5.47488 0.417314 3.04945e-10 -2.0296e-10 -7.2885e-10 2.90554 0.965183 0.102902 3.04949e-10 -2.0296e-10 -7.28847e-10 10.2786 0.731801 0.0259123 3.0494e-10 -2.02957e-10 -7.28843e-10 2.22167 -0.733487 -0.20892 1.70988e-15 -5.2009e-13 8.1266e-14 -90.351 6.2208 13.7638 14.8228 -7.55136 -27.3328 0.505894 19.5809 -2.86814 -6.4345e-10 7.70899e-10 1.01876e-09 -1.0952e-09 1.33457e-09 1.7721e-09 -6.43452e-10 7.70896e-10 1.01877e-09 -7.73091 5.47488 -0.417314 -6.43448e-10 7.70898e-10 1.01877e-09 -2.90554 0.965183 -0.102902 -6.43457e-10 7.70899e-10 1.01876e-09 -10.2786 0.731801 -0.0259123 -6.43445e-10 7.709e-10 1.01875e-09 -2.22167 -0.733487 0.20892 -2.03217e-16 0.0 -3.88251e-19 7.02374 -16.8874 17.105 -0.0603363 30.8436 0.471679 -4.88313 -17.2435 -12.5714 2.03217e-16 0.0 3.88251e-19 1.06957 -11.7617 -16.8386 0.184524 26.1522 -0.497206 5.28303 -5.24318 21.9195
